<?xml version="1.0" encoding="utf-8"?>
<svg version="1.1" id="레이어_1" xmlns="http://www.w3.org/2000/svg" xmlns:xlink="http://www.w3.org/1999/xlink" x="0px"
	 y="0px" viewBox="0 0 1024 1024" style="enable-background:new 0 0 1024 1024;" xml:space="preserve">
<style type="text/css">
	.st0{fill:#5229CB;}
	.st1{fill:#FFFFFF;}
	.st2{fill:#827DFA;}
</style>
<polygon class="st0" points="512.21,180.5 216.61,180.5 243.25,732.23 512.21,843.5 781.17,732.23 807.81,180.5 "/>
<g>
	<path class="st1" d="M678.89,395.46L519.3,302.19c-4.38-2.56-9.79-2.56-14.17,0l-159.59,93.27c-3.32,1.94-5.35,5.49-5.35,9.33v89.1
		v94.22c0,3.84,2.04,7.39,5.35,9.33l159.59,93.27c4.38,2.56,9.79,2.56,14.17,0l159.59-93.27c3.32-1.94,5.35-5.49,5.35-9.33v-94.22
		v-89.1C684.24,400.95,682.21,397.4,678.89,395.46z"/>
	<path class="st2" d="M623.16,429.23l-106.24-62.09c-2.91-1.7-6.52-1.7-9.43,0l-106.24,62.09c-2.21,1.29-3.56,3.65-3.56,6.21v59.31
		v62.72c0,2.56,1.36,4.92,3.56,6.21l106.24,62.09c2.91,1.7,6.52,1.7,9.43,0l106.24-62.09c2.21-1.29,3.56-3.65,3.56-6.21v-62.72
		v-59.31C626.73,432.88,625.37,430.52,623.16,429.23z"/>
</g>
</svg>
