<?xml version="1.0" encoding="utf-8"?>
<!-- Generator: Adobe Illustrator 25.0.0, SVG Export Plug-In . SVG Version: 6.00 Build 0)  -->
<svg version="1.1" id="레이어_1" xmlns="http://www.w3.org/2000/svg" xmlns:xlink="http://www.w3.org/1999/xlink" x="0px"
	 y="0px" viewBox="0 0 1024 1024" style="enable-background:new 0 0 1024 1024;" xml:space="preserve">
<style type="text/css">
	.st0{fill:#5229CB;}
	.st1{fill:#FFFFFF;}
	.st2{fill:#827DFA;}
</style>
<g>
	<polygon class="st0" points="304.64,119.21 257.45,119.21 257.45,70.81 216.42,70.81 216.42,210.69 257.45,210.69 257.45,162.17 
		304.64,162.17 304.64,210.69 345.67,210.69 345.67,70.81 304.64,70.81 	"/>
	<polygon class="st0" points="741.08,167.72 741.08,70.81 697.54,70.81 697.54,210.69 712.27,210.69 741.08,210.69 807.49,210.69 
		807.49,167.72 	"/>
	<polygon class="st0" points="369.38,119.21 411.03,119.21 411.03,210.69 453.93,210.69 453.93,119.21 495.57,119.21 495.57,70.81 
		369.38,70.81 	"/>
	<polygon class="st0" points="628.64,71.06 628.29,70.81 594.47,122.66 560.65,70.81 560.29,71.06 560.29,70.81 517.4,70.81 
		517.4,210.69 560.29,210.69 560.29,140.14 594.47,187.46 628.64,140.14 628.64,210.69 671.54,210.69 671.54,70.81 628.64,70.81 	
		"/>
</g>
<polygon class="st0" points="512.21,289.79 216.61,289.79 243.25,841.51 512.21,952.78 781.17,841.51 807.81,289.79 "/>
<g>
	<path class="st1" d="M678.89,504.74L519.3,411.47c-4.38-2.56-9.79-2.56-14.17,0l-159.59,93.27c-3.32,1.94-5.35,5.49-5.35,9.33v89.1
		v94.22c0,3.84,2.04,7.39,5.35,9.33l159.59,93.27c4.38,2.56,9.79,2.56,14.17,0l159.59-93.27c3.32-1.94,5.35-5.49,5.35-9.33v-94.22
		v-89.1C684.24,510.23,682.21,506.68,678.89,504.74z"/>
	<path class="st2" d="M623.16,538.51l-106.24-62.09c-2.91-1.7-6.52-1.7-9.43,0l-106.24,62.09c-2.21,1.29-3.56,3.65-3.56,6.21v59.31
		v62.72c0,2.56,1.36,4.92,3.56,6.21l106.24,62.09c2.91,1.7,6.52,1.7,9.43,0l106.24-62.09c2.21-1.29,3.56-3.65,3.56-6.21v-62.72
		v-59.31C626.73,542.16,625.37,539.8,623.16,538.51z"/>
</g>
</svg>
