<svg xmlns="http://www.w3.org/2000/svg" width="26" height="26" viewBox="0 0 26 26" fill="none">
<path fill-rule="evenodd" clip-rule="evenodd" d="M13.0108 0.199951C5.92686 0.199951 0.200195 6.06659 0.200195 13.3244C0.200195 19.126 3.86947 24.0369 8.95972 25.775C9.59613 25.9057 9.82925 25.4926 9.82925 25.1452C9.82925 24.8409 9.80827 23.798 9.80827 22.7113C6.24467 23.4937 5.50259 21.1468 5.50259 21.1468C4.92989 19.6257 4.08134 19.2348 4.08134 19.2348C2.91498 18.4308 4.1663 18.4308 4.1663 18.4308C5.46011 18.5177 6.139 19.778 6.139 19.778C7.28412 21.7769 9.12938 21.2121 9.87173 20.8644C9.97767 20.0169 10.3172 19.4303 10.6778 19.1044C7.83557 18.8001 4.8452 17.6703 4.8452 12.629C4.8452 11.1948 5.35391 10.0215 6.15998 9.10898C6.0328 8.78312 5.58728 7.43566 6.28742 5.6322C6.28742 5.6322 7.36908 5.28446 9.80801 6.97939C10.8522 6.6921 11.9291 6.54596 13.0108 6.54472C14.0925 6.54472 15.1951 6.69699 16.2133 6.97939C18.6525 5.28446 19.7342 5.6322 19.7342 5.6322C20.4343 7.43566 19.9885 8.78312 19.8613 9.10898C20.6886 10.0215 21.1764 11.1948 21.1764 12.629C21.1764 17.6703 18.186 18.7783 15.3225 19.1044C15.7893 19.5172 16.1921 20.2993 16.1921 21.538C16.1921 23.298 16.1711 24.7105 16.1711 25.1449C16.1711 25.4926 16.4045 25.9057 17.0406 25.7753C22.1309 24.0367 25.8001 19.126 25.8001 13.3244C25.8211 6.06659 20.0735 0.199951 13.0108 0.199951Z" fill="#7C7E81"/>
</svg>
