<svg width="20" height="20" viewBox="0 0 20 20" fill="none" xmlns="http://www.w3.org/2000/svg">
<path d="M5 5.6V15.2C5 15.6243 5.16857 16.0313 5.46863 16.3314C5.76869 16.6314 6.17565 16.8 6.6 16.8H13C13.4243 16.8 13.8313 16.6314 14.1314 16.3314C14.4314 16.0313 14.6 15.6243 14.6 15.2V8.1936C14.6 7.98045 14.5574 7.76945 14.4747 7.573C14.392 7.37654 14.2708 7.19859 14.1184 7.0496L11.4664 4.456C11.1675 4.16373 10.7661 4.00005 10.348 4H6.6C6.17565 4 5.76869 4.16857 5.46863 4.46863C5.16857 4.76869 5 5.17565 5 5.6Z" stroke="#9EA1A7" stroke-width="1.2" stroke-linecap="round" stroke-linejoin="round"/>
<path d="M4 2.5C4 2.22386 4.22386 2 4.5 2H11.3099C11.4324 2 11.5506 2.04494 11.6421 2.1263L15.8322 5.85083C15.9389 5.94571 16 6.08171 16 6.22453V17.5C16 17.7761 15.7761 18 15.5 18H4.5C4.22386 18 4 17.7761 4 17.5V2.5Z" fill="#D8DADC"/>
<rect x="2" y="9" width="16" height="7" rx="1" fill="#7C7E81"/>
<path d="M5.0373 10.6648H5.76484V13.1306C5.76484 13.8167 5.279 14.2488 4.56855 14.2488C3.92891 14.2488 3.42842 13.9119 3.43086 13.2136H4.16328C4.16816 13.4944 4.33906 13.658 4.60273 13.658C4.8835 13.658 5.0373 13.4773 5.0373 13.1306V10.6648ZM8.32949 11.6755C8.3002 11.3948 8.07803 11.2312 7.71914 11.2312C7.34805 11.2312 7.14053 11.4021 7.13809 11.6365C7.13564 11.8928 7.39932 12.0076 7.70449 12.0759L8.02188 12.1541C8.62734 12.2932 9.079 12.6008 9.08145 13.1892C9.079 13.8362 8.57607 14.2512 7.71426 14.2488C6.85977 14.2512 6.31533 13.8557 6.29336 13.0964H7.00625C7.03066 13.4529 7.31387 13.6335 7.70449 13.6335C8.09023 13.6335 8.33926 13.4529 8.33926 13.1892C8.33926 12.9475 8.11953 12.8352 7.73379 12.74L7.34805 12.6472C6.75234 12.5007 6.38613 12.2029 6.38613 11.6853C6.38369 11.0432 6.9501 10.616 7.72402 10.616C8.50771 10.616 9.02285 11.0505 9.03262 11.6755H8.32949ZM12.8473 12.4324C12.8473 13.5872 12.1319 14.2488 11.1969 14.2488C10.2545 14.2488 9.5416 13.5823 9.5416 12.4324C9.5416 11.2776 10.2545 10.616 11.1969 10.616C12.1319 10.616 12.8473 11.2776 12.8473 12.4324ZM10.2887 12.4324C10.2887 13.1868 10.6476 13.5969 11.1969 13.5994C11.7413 13.5969 12.1026 13.1868 12.1002 12.4324C12.1026 11.6755 11.7413 11.2678 11.1969 11.2654C10.6476 11.2678 10.2887 11.6755 10.2887 12.4324ZM16.3738 10.6648V14.2H15.7391L14.1863 11.9539H14.157V14.2H13.4246V10.6648H14.0691L15.6121 12.9109H15.6463V10.6648H16.3738Z" fill="white"/>
</svg>
