<svg xmlns="http://www.w3.org/2000/svg" width="16" height="16" viewBox="0 0 16 16" fill="none">
<path d="M2.5 12.5L2.5 3.5C2.5 3.10217 2.65803 2.72064 2.93934 2.43934C3.22064 2.15804 3.60217 2 4 2L12 2C12.3978 2 12.7794 2.15804 13.0607 2.43934C13.342 2.72064 13.5 3.10217 13.5 3.5L13.5 10.0685C13.5 10.2683 13.46 10.4661 13.3825 10.6503C13.305 10.8345 13.1914 11.0013 13.0485 11.141L10.5623 13.5725C10.282 13.8465 9.90568 14 9.51375 14L4 14C3.60218 14 3.22064 13.842 2.93934 13.5607C2.65804 13.2794 2.5 12.8978 2.5 12.5Z" fill="#1D1D1D" stroke="#1D1D1D" stroke-width="1.5" stroke-linecap="round" stroke-linejoin="round"/>
<path d="M4 4.5L12 4.5" stroke="white"/>
<path d="M4 7L12 7" stroke="white"/>
<path d="M4 9.5L8 9.5" stroke="white"/>
</svg>
