<svg width="20" height="20" viewBox="0 0 20 20" fill="none" xmlns="http://www.w3.org/2000/svg">
<path d="M5 5.6V15.2C5 15.6243 5.16857 16.0313 5.46863 16.3314C5.76869 16.6314 6.17565 16.8 6.6 16.8H13C13.4243 16.8 13.8313 16.6314 14.1314 16.3314C14.4314 16.0313 14.6 15.6243 14.6 15.2V8.1936C14.6 7.98045 14.5574 7.76945 14.4747 7.573C14.392 7.37654 14.2708 7.19859 14.1184 7.0496L11.4664 4.456C11.1675 4.16373 10.7661 4.00005 10.348 4H6.6C6.17565 4 5.76869 4.16857 5.46863 4.46863C5.16857 4.76869 5 5.17565 5 5.6Z" stroke="#9EA1A7" stroke-width="1.2" stroke-linecap="round" stroke-linejoin="round"/>
<path d="M4 2.5C4 2.22386 4.22386 2 4.5 2H11.3099C11.4324 2 11.5506 2.04494 11.6421 2.1263L15.8322 5.85083C15.9389 5.94571 16 6.08171 16 6.22453V17.5C16 17.7761 15.7761 18 15.5 18H4.5C4.22386 18 4 17.7761 4 17.5V2.5Z" fill="#D8DADC"/>
<rect x="2" y="9" width="16" height="7" rx="1" fill="#7C7E81"/>
<path d="M8.74209 10.6648H9.46963V13.1306C9.46963 13.8167 8.98379 14.2488 8.27334 14.2488C7.63369 14.2488 7.1332 13.9119 7.13564 13.2136H7.86807C7.87295 13.4944 8.04385 13.658 8.30752 13.658C8.58828 13.658 8.74209 13.4773 8.74209 13.1306V10.6648ZM12.0343 11.6755C12.005 11.3948 11.7828 11.2312 11.4239 11.2312C11.0528 11.2312 10.8453 11.4021 10.8429 11.6365C10.8404 11.8928 11.1041 12.0076 11.4093 12.0759L11.7267 12.1541C12.3321 12.2932 12.7838 12.6008 12.7862 13.1892C12.7838 13.8362 12.2809 14.2512 11.419 14.2488C10.5646 14.2512 10.0201 13.8557 9.99814 13.0964H10.711C10.7354 13.4529 11.0187 13.6335 11.4093 13.6335C11.795 13.6335 12.044 13.4529 12.044 13.1892C12.044 12.9475 11.8243 12.8352 11.4386 12.74L11.0528 12.6472C10.4571 12.5007 10.0909 12.2029 10.0909 11.6853C10.0885 11.0432 10.6549 10.616 11.4288 10.616C12.2125 10.616 12.7276 11.0505 12.7374 11.6755H12.0343Z" fill="white"/>
</svg>
