<svg width="48" height="48" viewBox="0 0 48 48" fill="none" xmlns="http://www.w3.org/2000/svg">
<g clip-path="url(#clip0_1_16)">
<path d="M43.578 23.1324C43.8739 23.6726 43.8739 24.3274 43.578 24.8676L34.5366 41.3692C34.2221 41.9434 33.6216 42.3 32.9695 42.3H15.0304C14.3783 42.3 13.7778 41.9434 13.4633 41.3692L4.42191 24.8676C4.12597 24.3274 4.12597 23.6726 4.42191 23.1324L13.4633 6.63082C13.7778 6.05665 14.3783 5.7 15.0304 5.7L32.9695 5.7C33.6216 5.7 34.2221 6.05665 34.5366 6.63082L43.578 23.1324Z" fill="#6750D2"/>
<path d="M23.4661 9.7486C23.7948 9.55047 24.2051 9.55047 24.5338 9.7486L35.6446 16.4463C35.9581 16.6352 36.15 16.9761 36.15 17.3439V30.6561C36.15 31.0239 35.9581 31.3648 35.6446 31.5537L24.5338 38.2514C24.2051 38.4495 23.7948 38.4495 23.4661 38.2514L12.3554 31.5538C12.0419 31.3648 11.85 31.0239 11.85 30.6561V17.3439C11.85 16.9761 12.0419 16.6352 12.3554 16.4463L23.4661 9.7486Z" fill="white"/>
<path d="M13.8 26.7V21.3H15.2189V23.4094H17.0971V21.3H18.516V26.7H17.0971V24.5906H15.2189V26.7H13.8Z" fill="#6750D2"/>
<path d="M19.0468 22.4812V21.3H23.5892V22.4812H22.0172V26.7H20.6188V22.4812H19.0468Z" fill="#6750D2"/>
<path d="M24.1232 21.3H25.8891L27.1039 24.3586H27.1651L28.3798 21.3H30.1458V26.7H28.7575V23.5781H28.7167L27.553 26.6578H26.716L25.5523 23.557H25.5115V26.7H24.1232V21.3Z" fill="#6750D2"/>
<path d="M30.8182 26.7V21.3H32.2371V25.5188H34.35V26.7H30.8182Z" fill="#6750D2"/>
</g>
<defs>
<clipPath id="clip0_1_16">
<rect width="48" height="48" fill="white"/>
</clipPath>
</defs>
</svg>
