<svg width="500" height="500" viewBox="0 0 500 500" fill="none" xmlns="http://www.w3.org/2000/svg">
<g clip-path="url(#clip0_1_8)">
<path d="M453.938 240.963C457.021 246.589 457.021 253.411 453.938 259.037L359.757 430.929C356.48 436.91 350.225 440.625 343.432 440.625H156.568C149.775 440.625 143.52 436.91 140.243 430.929L46.062 259.037C42.9793 253.411 42.9793 246.589 46.062 240.963L140.243 69.071C143.52 63.0901 149.775 59.375 156.568 59.375L343.432 59.375C350.225 59.375 356.48 63.0901 359.757 69.0711L453.938 240.963Z" fill="#6750D2"/>
<path d="M244.439 101.548C247.863 99.484 252.137 99.484 255.561 101.548L371.298 171.315C374.564 173.284 376.562 176.834 376.562 180.666V319.334C376.562 323.166 374.564 326.716 371.298 328.685L255.561 398.452C252.137 400.516 247.863 400.516 244.439 398.452L128.702 328.685C125.436 326.716 123.438 323.166 123.438 319.334V180.666C123.438 176.834 125.436 173.284 128.702 171.315L244.439 101.548Z" fill="white"/>
<path d="M143.75 278.125V221.875H158.53V243.848H178.095V221.875H192.875V278.125H178.095V256.152H158.53V278.125H143.75Z" fill="#6750D2"/>
<path d="M198.404 234.18V221.875H245.721V234.18H229.346V278.125H214.779V234.18H198.404Z" fill="#6750D2"/>
<path d="M251.283 221.875H269.678L282.331 253.735H282.969L295.623 221.875H314.018V278.125H299.557V245.605H299.132L287.01 277.686H278.291L266.169 245.386H265.744V278.125H251.283V221.875Z" fill="#6750D2"/>
<path d="M321.022 278.125V221.875H335.802V265.82H357.813V278.125H321.022Z" fill="#6750D2"/>
</g>
<defs>
<clipPath id="clip0_1_8">
<rect width="500" height="500" fill="white"/>
</clipPath>
</defs>
</svg>
