<svg xmlns="http://www.w3.org/2000/svg" width="21" height="24" viewBox="0 0 21 24" fill="none">
<path d="M20.482 0H0.518022C0.234941 0 0.00831562 0.234794 0.0183351 0.517697L0.677625 19.1329C0.691291 19.5188 0.92587 19.8623 1.28029 20.0155L10.1033 23.8286C10.3564 23.938 10.6436 23.938 10.8967 23.8286L19.7197 20.0155C20.0741 19.8623 20.3087 19.5188 20.3224 19.1329L20.9817 0.517697C20.9917 0.234794 20.7651 0 20.482 0Z" fill="#4B32C3"/>
<path d="M10.3536 4.31725L4.35357 7.6786C4.25885 7.73166 4.2002 7.83175 4.2002 7.94032V14.6475C4.2002 14.7561 4.25885 14.8562 4.35357 14.9093L10.3536 18.2706C10.4447 18.3216 10.5557 18.3216 10.6468 18.2706L16.6468 14.9093C16.7415 14.8562 16.8002 14.7561 16.8002 14.6475V7.94032C16.8002 7.83175 16.7415 7.73166 16.6468 7.6786L10.6468 4.31725C10.5557 4.26622 10.4447 4.26622 10.3536 4.31725Z" fill="white"/>
<path d="M10.3982 6.5058L6.16013 8.81028C6.09211 8.84727 6.0498 8.91826 6.0498 8.99541V13.5845C6.0498 13.6617 6.09211 13.7327 6.16013 13.7697L10.3982 16.0742C10.4615 16.1086 10.5381 16.1086 10.6014 16.0742L14.8395 13.7697C14.9075 13.7327 14.9498 13.6617 14.9498 13.5845V8.99541C14.9498 8.91826 14.9075 8.84727 14.8395 8.81028L10.6014 6.5058C10.5381 6.47137 10.4615 6.47137 10.3982 6.5058Z" fill="#8080F2"/>
</svg>
