<svg xmlns="http://www.w3.org/2000/svg" viewBox="0 0 1024 1024"><path d="M304.64 119.21h-47.19v-48.4h-41.03v139.88h41.03v-48.52h47.19v48.52h41.03V70.81h-41.03zm436.44 48.51V70.81h-43.54v139.88h109.95v-42.97zm-371.7-48.51h41.65v91.48h42.9v-91.48h41.64v-48.4H369.38zm259.26-48.15l-.35-.25-33.82 51.85-33.82-51.85-.36.25v-.25H517.4v139.88h42.89v-70.55l34.18 47.32 34.17-47.32v70.55h42.9V70.81h-42.9zM512.21 289.79h-295.6l26.64 551.72 268.96 111.27 268.96-111.27 26.64-551.72z" fill="#5229cb"/><path d="M678.89 504.74L519.3 411.47a14.032 14.032 0 00-14.17 0l-159.59 93.27a10.797 10.797 0 00-5.35 9.33v183.32c0 3.84 2.04 7.39 5.35 9.33l159.59 93.27c4.38 2.56 9.79 2.56 14.17 0l159.59-93.27c3.32-1.94 5.35-5.49 5.35-9.33V514.07c0-3.84-2.03-7.39-5.35-9.33z" fill="#fff"/><path d="M623.16 538.51l-106.24-62.09a9.356 9.356 0 00-9.43 0l-106.24 62.09a7.178 7.178 0 00-3.56 6.21v122.03a7.2 7.2 0 003.56 6.21l106.24 62.09c2.91 1.7 6.52 1.7 9.43 0l106.24-62.09a7.178 7.178 0 003.56-6.21V544.72a7.157 7.157 0 00-3.56-6.21z" fill="#827dfa"/></svg>